HIERARCHY
ROOT joint_Root
{
	OFFSET 0.0 0.0 0.0
	CHANNELS 6 Xposition Yposition Zposition Zrotation Xrotation Yrotation 
	JOINT Hips
	{
		OFFSET 4.5925 91.4895 -427.239
		CHANNELS 6 Xposition Yposition Zposition Zrotation Xrotation Yrotation 
		JOINT Spine
		{
			OFFSET 15.7357 0.0 0.0
			CHANNELS 6 Xposition Yposition Zposition Zrotation Xrotation Yrotation 
			JOINT Chest
			{
				OFFSET 8.98455 -0.406207 0.0
				CHANNELS 6 Xposition Yposition Zposition Zrotation Xrotation Yrotation 
				JOINT Neck
				{
					OFFSET 16.3773 0.0 0.0
					CHANNELS 6 Xposition Yposition Zposition Zrotation Xrotation Yrotation 
					JOINT Head
					{
						OFFSET 6.45672 0.0 0.0
						CHANNELS 6 Xposition Yposition Zposition Zrotation Xrotation Yrotation 
						End Site
						{
							OFFSET 0.0 0.0 0.0
						}
					}
				}
				JOINT Shoulder_L
				{
					OFFSET 12.9942 -0.242716 4.98039
					CHANNELS 6 Xposition Yposition Zposition Zrotation Xrotation Yrotation 
					JOINT UpperArm_L
					{
						OFFSET 5.34809 0.0 0.0
						CHANNELS 6 Xposition Yposition Zposition Zrotation Xrotation Yrotation 
						JOINT LowerArm_L
						{
							OFFSET 24.3286 1.87007e-05 0.0
							CHANNELS 6 Xposition Yposition Zposition Zrotation Xrotation Yrotation 
							JOINT Hand_L
							{
								OFFSET 22.2916 0.0 0.0
								CHANNELS 6 Xposition Yposition Zposition Zrotation Xrotation Yrotation 
								End Site
								{
									OFFSET 0.0 0.0 0.0
								}
							}
						}
					}
				}
				JOINT Shoulder_R
				{
					OFFSET 12.9945 -0.242716 -4.98039
					CHANNELS 6 Xposition Yposition Zposition Zrotation Xrotation Yrotation 
					JOINT UpperArm_R
					{
						OFFSET -5.34813 0.0 0.0
						CHANNELS 6 Xposition Yposition Zposition Zrotation Xrotation Yrotation 
						JOINT LowerArm_R
						{
							OFFSET -24.3289 0.000322201 0.0
							CHANNELS 6 Xposition Yposition Zposition Zrotation Xrotation Yrotation 
							JOINT Hand_R
							{
								OFFSET -22.2915 -0.000108084 0.0
								CHANNELS 6 Xposition Yposition Zposition Zrotation Xrotation Yrotation 
								End Site
								{
									OFFSET 0.0 0.0 0.0
								}
							}
						}
					}
				}
			}
		}
		JOINT UpperLeg_L
		{
			OFFSET -2.19248 -6.46944 0.0
			CHANNELS 6 Xposition Yposition Zposition Zrotation Xrotation Yrotation 
			JOINT LowerLeg_L
			{
				OFFSET 39.0811 0.0 -1.23785e-05
				CHANNELS 6 Xposition Yposition Zposition Zrotation Xrotation Yrotation 
				JOINT Foot_L
				{
					OFFSET 40.9854 0.0 -1.26872e-05
					CHANNELS 6 Xposition Yposition Zposition Zrotation Xrotation Yrotation 
					JOINT Toes_L
					{
						OFFSET 11.7543 0.0 0.0
						CHANNELS 6 Xposition Yposition Zposition Zrotation Xrotation Yrotation 
						End Site
						{
							OFFSET 0.0 0.0 0.0
						}
					}
				}
			}
		}
		JOINT UpperLeg_R
		{
			OFFSET -2.19251 6.46944 0.0
			CHANNELS 6 Xposition Yposition Zposition Zrotation Xrotation Yrotation 
			JOINT LowerLeg_R
			{
				OFFSET -39.0811 -0.00228153 -0.0401928
				CHANNELS 6 Xposition Yposition Zposition Zrotation Xrotation Yrotation 
				JOINT Foot_R
				{
					OFFSET -40.9854 0.0 0.0
					CHANNELS 6 Xposition Yposition Zposition Zrotation Xrotation Yrotation 
					JOINT Toes_R
					{
						OFFSET -11.7543 0.0 0.0
						CHANNELS 6 Xposition Yposition Zposition Zrotation Xrotation Yrotation 
						End Site
						{
							OFFSET 0.0 0.0 0.0
						}
					}
				}
			}
		}
	}
}
MOTION
Frames:	7
Frame Time:	0.0333333
0.000000 0.000000 0.000000 0.000000 0.000000 -0.000000 -2.563620 88.832900 -516.194000 89.817600 -6.900310 -0.330763 15.735700 0.000005 -0.000001 94.432600 78.751400 -95.812700 8.984550 -0.406207 -0.000000 14.689700 1.633680 -2.972560 16.377300 -0.000001 -0.000001 -0.190410 -2.870530 2.849630 6.456720 -0.000001 -0.000000 -8.078160 -2.745690 0.271073 12.994200 -0.242716 4.980390 -91.119400 3.802670 -73.584400 5.348090 -0.000007 -0.000001 -65.465200 29.737300 -12.220800 24.328600 0.000019 0.000005 7.969140 21.095000 -21.253800 22.291600 -0.000001 0.000005 11.635500 5.189270 2.986810 12.994500 -0.242716 -4.980390 89.150800 8.032390 -83.945000 -5.348130 -0.000001 -0.000004 -49.879100 31.437300 -33.115700 -24.328900 0.000322 -0.000009 -0.189221 -0.290743 -32.903300 -22.291500 -0.000108 -0.000004 18.910000 5.417950 -3.530220 -2.192480 -6.469440 -0.000000 177.841000 -10.562300 -30.123900 39.081100 -0.000007 -0.000012 -0.042943 0.063012 34.275300 40.985400 -0.000006 -0.000013 2.948110 -1.543640 -56.101800 11.754300 -0.000000 0.000003 -0.000033 -0.000553 -16.599900 -2.192510 6.469440 -0.000001 177.904000 20.366700 173.898000 -39.081100 -0.002282 -0.040193 0.010297 -0.009207 37.288300 -40.985400 0.000008 0.000006 7.685610 6.924820 -79.069000 -11.754300 -0.000006 -0.000006 -0.009063 -0.096501 -20.503800
0.000000 0.000000 0.000000 0.000000 0.000000 -0.000000 -2.234350 88.679400 -513.354000 89.657900 -6.614790 -0.089287 15.735700 0.000005 -0.000001 93.647400 78.821300 -95.206900 8.984550 -0.406207 -0.000000 14.568800 1.312310 -3.288510 16.377300 -0.000001 -0.000001 -0.326430 -3.073680 2.736150 6.456720 -0.000001 -0.000000 -7.600640 -2.869560 0.920221 12.994200 -0.242716 4.980390 -91.110000 3.847420 -73.893500 5.348090 -0.000007 -0.000001 -64.827200 29.852200 -13.189500 24.328600 0.000019 0.000005 7.791810 21.324100 -20.620900 22.291600 -0.000001 0.000005 11.347100 5.186930 3.044130 12.994500 -0.242716 -4.980390 89.060800 8.409970 -83.604700 -5.348130 -0.000001 -0.000004 -51.289300 30.987400 -31.026300 -24.328900 0.000322 -0.000009 0.265763 0.414224 -32.789500 -22.291500 -0.000108 -0.000004 19.053500 5.415890 -3.461560 -2.192480 -6.469440 -0.000000 178.630000 -7.087870 -29.314300 39.081100 -0.000007 -0.000012 -0.154075 0.202681 37.242000 40.985400 -0.000006 -0.000013 1.962530 -4.336610 -58.719500 11.754300 -0.000000 0.000003 0.000630 0.011389 -16.115000 -2.192510 6.469440 -0.000001 177.382000 18.611000 173.383000 -39.081100 -0.002282 -0.040193 0.036506 -0.037308 41.693000 -40.985400 0.000008 0.000006 6.774950 5.196800 -76.761700 -11.754300 -0.000006 -0.000006 -0.026096 -0.198976 -24.716000
0.000000 0.000000 0.000000 0.000000 0.000000 -0.000000 -1.795470 88.752400 -510.580000 89.495300 -6.568210 0.643446 15.735700 0.000005 -0.000001 93.555300 78.744000 -95.232600 8.984550 -0.406207 -0.000000 14.726400 1.276760 -3.521660 16.377300 -0.000001 -0.000001 -0.194575 -3.183350 2.579900 6.456720 -0.000001 -0.000000 -7.684780 -3.095570 1.149130 12.994200 -0.242716 4.980390 -91.026000 3.615160 -74.143800 5.348090 -0.000007 -0.000001 -64.269800 30.193900 -14.912000 24.328600 0.000019 0.000005 7.521330 21.326900 -19.952500 22.291600 -0.000001 0.000005 11.423200 5.178690 3.248060 12.994500 -0.242716 -4.980390 89.061000 8.390430 -83.591200 -5.348130 -0.000001 -0.000004 -54.072000 29.822000 -27.622900 -24.328900 0.000322 -0.000009 0.286891 0.449244 -32.656700 -22.291500 -0.000108 -0.000004 19.171500 5.413980 -3.397270 -2.192480 -6.469440 -0.000000 178.626000 -6.612170 -27.312500 39.081100 -0.000007 -0.000012 -0.184753 0.229744 38.805600 40.985400 -0.000006 -0.000013 1.968250 -4.726360 -61.433900 11.754300 -0.000000 0.000003 0.000299 0.005835 -16.338600 -2.192510 6.469440 -0.000001 176.821000 16.479300 171.257000 -39.081100 -0.002282 -0.040193 0.083538 -0.070659 48.649400 -40.985400 0.000008 0.000006 5.405790 3.802630 -71.259300 -11.754300 -0.000006 -0.000006 -0.054553 -0.313639 -29.506800
0.000000 0.000000 0.000000 0.000000 0.000000 -0.000000 -1.416490 88.959600 -508.009000 88.932000 -6.823010 1.183980 15.735700 0.000005 -0.000001 93.572300 78.715200 -95.186100 8.984550 -0.406207 -0.000000 14.782900 1.289820 -3.397050 16.377300 -0.000001 -0.000001 -0.281624 -3.063330 2.354680 6.456720 -0.000001 -0.000000 -7.587200 -3.023590 1.041670 12.994200 -0.242716 4.980390 -90.978700 3.454720 -74.173300 5.348090 -0.000007 -0.000001 -63.651400 30.155300 -16.715400 24.328600 0.000019 0.000005 7.543330 21.097200 -20.198300 22.291600 -0.000001 0.000005 11.380600 5.173940 3.364110 12.994500 -0.242716 -4.980390 89.076500 8.336000 -83.655400 -5.348130 -0.000001 -0.000004 -55.946100 29.517100 -25.131900 -24.328900 0.000322 -0.000009 -0.143535 -0.231530 -31.632400 -22.291500 -0.000108 -0.000004 18.862700 5.414850 -3.427640 -2.192480 -6.469440 -0.000000 178.886000 -8.141880 -25.100300 39.081100 -0.000007 -0.000012 -0.186062 0.225938 39.472200 40.985400 -0.000006 -0.000013 2.469750 -3.625310 -63.737000 11.754300 -0.000000 0.000003 -0.000024 -0.000299 -16.589200 -2.192510 6.469440 -0.000001 177.162000 13.173500 167.506000 -39.081100 -0.002282 -0.040193 0.125778 -0.081399 56.409400 -40.985400 0.000008 0.000006 2.428660 1.702380 -64.164400 -11.754300 -0.000006 -0.000006 -0.043368 -0.273267 -27.808400
0.000000 0.000000 0.000000 0.000000 0.000000 -0.000000 -1.099280 89.234900 -505.626000 88.649900 -6.267410 1.300890 15.735700 0.000005 -0.000001 92.144300 78.855900 -93.678700 8.984550 -0.406207 -0.000000 14.519300 0.733466 -3.163810 16.377300 -0.000001 -0.000001 -0.395333 -3.059460 2.100730 6.456720 -0.000001 -0.000000 -7.439590 -2.810420 1.068420 12.994200 -0.242716 4.980390 -90.959900 3.431950 -74.363200 5.348090 -0.000007 -0.000001 -62.787300 29.902400 -18.223700 24.328600 0.000019 0.000005 7.868860 20.350700 -21.674200 22.291600 -0.000001 0.000005 11.908600 5.173790 3.368030 12.994500 -0.242716 -4.980390 89.024900 8.427820 -83.376200 -5.348130 -0.000001 -0.000004 -56.907600 30.157500 -23.415400 -24.328900 0.000322 -0.000009 -0.172761 -0.297063 -29.996900 -22.291500 -0.000108 -0.000004 18.274000 5.415390 -3.444510 -2.192480 -6.469440 -0.000000 178.915000 -9.036820 -23.088100 39.081100 -0.000007 -0.000012 -0.184922 0.226327 39.251300 40.985400 -0.000006 -0.000013 2.991480 -2.486630 -65.466500 11.754300 -0.000000 0.000003 -0.000018 -0.000232 -16.586700 -2.192510 6.469440 -0.000001 177.575000 11.793000 163.729000 -39.081100 -0.002282 -0.040193 0.147872 -0.075829 62.341300 -40.985400 0.000008 0.000006 1.456040 -0.696405 -59.985200 -11.754300 -0.000006 -0.000006 -0.015245 -0.139354 -22.259100
0.000000 0.000000 0.000000 0.000000 0.000000 -0.000000 -0.809365 89.562100 -503.383000 88.311700 -5.352130 1.210920 15.735700 0.000005 -0.000001 90.036600 79.045800 -91.403900 8.984550 -0.406207 -0.000000 14.143100 -0.062071 -2.727900 16.377300 -0.000001 -0.000001 -0.520749 -3.128120 1.837890 6.456720 -0.000001 -0.000000 -7.275560 -2.532660 1.194000 12.994200 -0.242716 4.980390 -90.965800 3.506120 -74.588700 5.348090 -0.000007 -0.000001 -61.796900 29.385300 -19.606800 24.328600 0.000019 0.000005 8.328510 19.355000 -23.832100 22.291600 -0.000001 0.000005 12.532200 5.182620 3.152640 12.994500 -0.242716 -4.980390 88.957300 8.675530 -83.120200 -5.348130 -0.000001 -0.000004 -57.580100 30.910100 -21.669900 -24.328900 0.000322 -0.000009 0.272632 0.502691 -28.583500 -22.291500 -0.000108 -0.000004 17.734900 5.408100 -3.202210 -2.192480 -6.469440 -0.000000 179.101000 -8.770200 -21.114100 39.081100 -0.000007 -0.000012 -0.190517 0.239539 38.497300 40.985400 -0.000006 -0.000013 3.242520 -2.017290 -66.774700 11.754300 -0.000000 0.000003 -0.000019 -0.000236 -16.586800 -2.192510 6.469440 -0.000001 178.388000 11.235600 160.935000 -39.081100 -0.002282 -0.040193 0.127414 -0.059000 64.598500 -40.985400 0.000008 0.000006 2.528040 -1.139010 -61.358400 -11.754300 -0.000006 -0.000006 -0.015054 -0.138160 -22.210100
0.000000 0.000000 0.000000 0.000000 0.000000 -0.000000 -0.574879 89.948700 -501.253000 87.931100 -4.700120 1.194420 15.735700 0.000005 -0.000001 88.684200 79.136700 -89.838700 8.984550 -0.406207 -0.000000 13.950700 -0.555356 -2.241960 16.377300 -0.000001 -0.000001 -0.728543 -3.138110 1.811620 6.456720 -0.000001 -0.000000 -7.226740 -2.505030 1.196070 12.994200 -0.242716 4.980390 -90.965600 3.543120 -74.744800 5.348090 -0.000007 -0.000001 -60.598900 29.337400 -21.412700 24.328600 0.000019 0.000005 8.815100 18.429900 -26.128900 22.291600 -0.000001 0.000005 13.367500 5.191540 2.926300 12.994500 -0.242716 -4.980390 88.873100 8.915750 -82.766900 -5.348130 -0.000001 -0.000004 -58.240800 31.432900 -19.684400 -24.328900 0.000322 -0.000009 0.574435 1.097030 -27.686100 -22.291500 -0.000108 -0.000004 17.539300 5.400970 -2.969040 -2.192480 -6.469440 -0.000000 179.413000 -8.599160 -18.862700 39.081100 -0.000007 -0.000012 -0.190634 0.251064 37.209900 40.985400 -0.000006 -0.000013 3.426920 -1.613280 -67.745100 11.754300 -0.000000 0.000003 -0.000017 -0.000218 -16.586100 -2.192510 6.469440 -0.000001 179.480000 10.510000 158.804000 -39.081100 -0.002282 -0.040193 0.094254 -0.046229 63.088000 -40.985400 0.000008 0.000006 2.540860 -0.956540 -62.603000 -11.754300 -0.000006 -0.000006 -0.014473 -0.134475 -22.058900
